<svg width="186" height="22" viewBox="0 0 186 22" fill="none" xmlns="http://www.w3.org/2000/svg">
<path d="M36.2323 19.4066H4.64855C3.38256 18.364 2.63748 16.8106 2.63748 15.178C2.63748 12.1398 5.15231 9.66698 8.24211 9.66698C8.64301 9.66698 9.04258 9.70848 9.43029 9.79146C9.43557 9.79276 9.43952 9.79406 9.4448 9.79406C9.44612 9.79406 9.44612 9.79406 9.44744 9.79406C9.45007 9.79406 9.45403 9.79535 9.45667 9.79665C11.3108 10.1973 12.863 11.5368 13.5131 13.2965C13.761 13.9695 14.518 14.317 15.2024 14.0732C15.8868 13.8294 16.2403 13.0851 15.9923 12.4121C15.2024 10.2712 13.4999 8.55311 11.3899 7.6895C12.6994 4.63704 15.7602 2.59342 19.2127 2.59342C22.8023 2.59342 26.0213 4.82636 27.2214 8.14983C27.4284 8.72297 28.0113 9.07698 28.6258 9.00306C28.8078 8.98102 28.9951 8.96935 29.1837 8.96935C31.7618 8.96935 33.8586 11.0311 33.8586 13.5662C33.8586 14.033 33.7874 14.4933 33.6489 14.9329C33.4326 15.6163 33.8203 16.3437 34.5166 16.5564C34.6472 16.5966 34.7791 16.6148 34.9083 16.6148C35.4701 16.6148 35.991 16.2582 36.1677 15.7032C36.3866 15.0133 36.4961 14.2936 36.4961 13.5662C36.4961 9.65142 33.2968 6.45632 29.334 6.37722C27.5339 2.52599 23.583 0 19.2127 0C14.5338 0 10.4048 2.86573 8.79202 7.09431C8.60872 7.08264 8.42541 7.07356 8.24211 7.07356C3.69774 7.07356 0 10.7095 0 15.178C0 17.7753 1.28049 20.2339 3.42608 21.7549C3.65027 21.9144 3.92061 22 4.19754 22H36.2323C36.9603 22 37.5511 21.4191 37.5511 20.7033C37.5511 19.9875 36.9603 19.4066 36.2323 19.4066Z" fill="#2A7DE1"/>
<path d="M41.9717 14.6665C41.9717 10.7544 44.9797 8.08313 48.7645 8.08313C50.8995 8.08313 52.3554 8.86505 53.384 9.97244C53.5977 10.1825 53.7137 10.5067 53.7137 10.8309C53.7137 11.5376 53.1308 12.1094 52.4134 12.1094C52.0257 12.1094 51.6763 11.9564 51.4231 11.6711C50.7822 10.9644 49.8511 10.4885 48.7645 10.4885C46.5134 10.4885 44.8056 12.2637 44.8056 14.6678C44.8056 17.0719 46.5134 18.8471 48.7645 18.8471C49.8511 18.8471 50.7835 18.3894 51.4429 17.6451C51.6763 17.3974 52.0257 17.2249 52.4134 17.2249C53.1322 17.2249 53.7137 17.7981 53.7137 18.5035C53.7137 18.8277 53.5977 19.1337 53.384 19.3438C52.3554 20.4512 50.8995 21.2525 48.7645 21.2525C44.981 21.2499 41.9717 18.5787 41.9717 14.6665Z" fill="#2A7DE1"/>
<path d="M55.3438 19.57V9.51272C55.3438 8.7684 55.9649 8.15765 56.7416 8.15765C57.4986 8.15765 58.0999 8.7684 58.0999 9.51272V18.6351H62.5058C63.1652 18.6351 63.7085 19.1693 63.7085 19.8177C63.7085 20.4855 63.1652 21.0197 62.5058 21.0197H56.7996C55.8686 21.0197 55.3438 20.5049 55.3438 19.57Z" fill="#2A7DE1"/>
<path d="M70.716 8.08112C74.6366 8.08112 77.489 10.8288 77.489 14.6645C77.489 18.5002 74.6366 21.2479 70.716 21.2479C66.8152 21.2479 63.9614 18.5002 63.9614 14.6645C63.9614 10.8301 66.8139 8.08112 70.716 8.08112ZM70.716 10.4865C68.3291 10.4865 66.7954 12.2799 66.7954 14.6658C66.7954 17.0323 68.3291 18.8451 70.716 18.8451C73.1029 18.8451 74.6564 17.0323 74.6564 14.6658C74.6551 12.2799 73.1029 10.4865 70.716 10.4865Z" fill="#2A7DE1"/>
<path d="M79.0415 9.53217C79.0415 8.76841 79.6626 8.15765 80.4394 8.15765C81.2161 8.15765 81.8372 8.76841 81.8372 9.53217V15.8484C81.8372 17.6236 82.8276 18.8451 84.8453 18.8451C86.8247 18.8451 87.8151 17.6236 87.8151 15.8484V9.53217C87.8151 8.76841 88.4362 8.15765 89.2129 8.15765C89.9897 8.15765 90.6108 8.76841 90.6108 9.53217V15.925C90.6108 19.0928 88.7672 21.2492 84.8466 21.2492C80.8877 21.2492 79.0441 19.0734 79.0441 15.9444V9.53217H79.0415Z" fill="#2A7DE1"/>
<path d="M92.7827 19.5701V9.72283C92.7827 8.80735 93.3063 8.29126 94.2386 8.29126H97.8876C101.944 8.29126 104.758 10.8289 104.758 14.6659C104.758 18.5016 101.944 21.0211 97.8876 21.0211H94.2386C93.3076 21.0198 92.7827 20.505 92.7827 19.5701ZM97.8876 18.6351C100.45 18.6351 101.944 16.8223 101.944 14.6659C101.944 12.4135 100.546 10.6772 97.8876 10.6772H95.5389V18.6351H97.8876Z" fill="#2A7DE1"/>
<path d="M110.367 18.922C110.367 18.2153 110.95 17.6434 111.647 17.6434C111.919 17.6434 112.171 17.7199 112.384 17.873C113.277 18.4837 114.344 18.8844 115.644 18.8844C117.158 18.8844 117.895 18.1777 117.895 17.4528C117.895 16.4984 116.769 16.1743 115.275 15.8306C113.16 15.3534 110.442 14.7816 110.442 11.9379C110.442 9.81908 112.305 8.10223 115.547 8.10223C117.022 8.10223 118.323 8.44586 119.564 9.15127C119.933 9.34189 120.204 9.76202 120.204 10.2198C120.204 10.907 119.622 11.4789 118.942 11.4789C118.691 11.4789 118.457 11.4024 118.283 11.2883C117.293 10.7346 116.264 10.4674 115.353 10.4674C113.917 10.4674 113.257 11.0017 113.257 11.7654C113.257 12.6239 114.344 12.891 115.838 13.2346C117.973 13.7118 120.69 14.342 120.69 17.1662C120.69 19.4951 119.002 21.2496 115.508 21.2496C113.607 21.2496 112.113 20.7724 110.948 19.971C110.6 19.7415 110.367 19.3603 110.367 18.922Z" fill="#2A7DE1"/>
<path d="M121.545 14.6659C121.545 10.7537 124.553 8.08246 128.338 8.08246C130.473 8.08246 131.929 8.86438 132.958 9.97177C133.171 10.1818 133.287 10.506 133.287 10.8302C133.287 11.5369 132.705 12.1087 131.987 12.1087C131.599 12.1087 131.25 11.9557 130.997 11.6705C130.356 10.9638 129.425 10.4879 128.338 10.4879C126.087 10.4879 124.379 12.2631 124.379 14.6672C124.379 17.0713 126.087 18.8465 128.338 18.8465C129.425 18.8465 130.357 18.3887 131.017 17.6444C131.25 17.3967 131.599 17.2243 131.987 17.2243C132.706 17.2243 133.287 17.7974 133.287 18.5028C133.287 18.827 133.171 19.133 132.958 19.3431C131.929 20.4505 130.473 21.2519 128.338 21.2519C124.553 21.2493 121.545 18.578 121.545 14.6659Z" fill="#2A7DE1"/>
<path d="M143.787 19.7995V15.6773H137.674V19.7995C137.674 20.5244 137.072 21.1546 136.315 21.1546C135.539 21.1546 134.917 20.5244 134.917 19.7995V9.51272C134.917 8.7684 135.539 8.15765 136.296 8.15765C137.072 8.15765 137.674 8.7684 137.674 9.51272V13.2913H143.787V9.51272C143.787 8.7684 144.408 8.15765 145.185 8.15765C145.942 8.15765 146.563 8.7684 146.563 9.51272V19.7995C146.563 20.5244 145.942 21.1546 145.165 21.1546C144.408 21.1533 143.787 20.5244 143.787 19.7995Z" fill="#2A7DE1"/>
<path d="M154.85 8.08112C158.771 8.08112 161.623 10.8288 161.623 14.6645C161.623 18.5002 158.771 21.2479 154.85 21.2479C150.949 21.2479 148.096 18.5002 148.096 14.6645C148.096 10.8301 150.948 8.08112 154.85 8.08112ZM154.85 10.4865C152.463 10.4865 150.93 12.2799 150.93 14.6658C150.93 17.0323 152.463 18.8451 154.85 18.8451C157.237 18.8451 158.791 17.0323 158.791 14.6658C158.789 12.2799 157.237 10.4865 154.85 10.4865Z" fill="#2A7DE1"/>
<path d="M169.309 8.08112C173.229 8.08112 176.082 10.8288 176.082 14.6645C176.082 18.5002 173.229 21.2479 169.309 21.2479C165.408 21.2479 162.554 18.5002 162.554 14.6645C162.556 10.8301 165.408 8.08112 169.309 8.08112ZM169.309 10.4865C166.922 10.4865 165.388 12.2799 165.388 14.6658C165.388 17.0323 166.922 18.8451 169.309 18.8451C171.696 18.8451 173.249 17.0323 173.249 14.6658C173.249 12.2799 171.696 10.4865 169.309 10.4865Z" fill="#2A7DE1"/>
<path d="M177.635 19.57V9.51272C177.635 8.7684 178.256 8.15765 179.033 8.15765C179.79 8.15765 180.391 8.7684 180.391 9.51272V18.6351H184.797C185.457 18.6351 186 19.1693 186 19.8177C186 20.4855 185.457 21.0197 184.797 21.0197H179.091C178.159 21.0197 177.635 20.5049 177.635 19.57Z" fill="#2A7DE1"/>
</svg>
