<svg width="204" height="93" viewBox="0 0 204 93" fill="none" xmlns="http://www.w3.org/2000/svg">
<path d="M136.902 47.4077H58.3919C55.2449 44.8609 53.3928 41.066 53.3928 37.0779C53.3928 29.656 59.6441 23.6152 67.3247 23.6152C68.3212 23.6152 69.3145 23.7165 70.2782 23.9193C70.2913 23.9224 70.3012 23.9256 70.3143 23.9256C70.3175 23.9256 70.3175 23.9256 70.3208 23.9256C70.3274 23.9256 70.3372 23.9288 70.3438 23.9319C74.9528 24.9108 78.8111 28.183 80.4271 32.4815C81.0434 34.1256 82.925 34.9745 84.6264 34.379C86.3277 33.7835 87.2062 31.9652 86.5899 30.3212C84.6264 25.0913 80.3944 20.8941 75.1494 18.7844C78.4046 11.3277 86.013 6.33539 94.595 6.33539C103.518 6.33539 111.52 11.7902 114.503 19.909C115.017 21.3091 116.466 22.1739 117.994 21.9933C118.446 21.9395 118.912 21.9109 119.381 21.9109C125.789 21.9109 131.001 26.9476 131.001 33.1404C131.001 34.2808 130.824 35.4053 130.48 36.4792C129.943 38.1485 130.906 39.9256 132.637 40.4451C132.962 40.5433 133.289 40.5877 133.611 40.5877C135.007 40.5877 136.302 39.7166 136.741 38.3608C137.285 36.6756 137.557 34.9175 137.557 33.1404C137.557 23.5772 129.605 15.772 119.754 15.5787C115.28 6.17067 105.459 0 94.595 0C82.9644 0 72.7007 7.0006 68.6916 17.3305C68.236 17.3019 67.7803 17.2798 67.3247 17.2798C56.0284 17.2798 46.8367 26.162 46.8367 37.0779C46.8367 43.4228 50.0197 49.4287 55.3531 53.1444C55.9104 53.534 56.5824 53.7431 57.2708 53.7431H136.902C138.711 53.7431 140.18 52.324 140.18 50.5754C140.18 48.8268 138.711 47.4077 136.902 47.4077Z" fill="#2A7DE1"/>
<path d="M0.165039 82.8561C0.165039 77.3231 4.41929 73.5452 9.77207 73.5452C12.7916 73.5452 14.8507 74.6511 16.3054 76.2173C16.6076 76.5144 16.7717 76.9728 16.7717 77.4313C16.7717 78.4308 15.9474 79.2396 14.9327 79.2396C14.3844 79.2396 13.8902 79.0232 13.5321 78.6197C12.6256 77.6202 11.3089 76.9472 9.77207 76.9472C6.58838 76.9472 4.1731 79.4578 4.1731 82.8579C4.1731 86.258 6.58838 88.7687 9.77207 88.7687C11.3089 88.7687 12.6275 88.1213 13.56 87.0686C13.8902 86.7183 14.3844 86.4744 14.9327 86.4744C15.9492 86.4744 16.7717 87.285 16.7717 88.2827C16.7717 88.7412 16.6076 89.174 16.3054 89.4711C14.8507 91.0372 12.7916 92.1706 9.77207 92.1706C4.42115 92.1669 0.165039 88.389 0.165039 82.8561Z" fill="#2A7DE1"/>
<path d="M19.0769 89.7918V75.5679C19.0769 74.5152 19.9554 73.6514 21.0539 73.6514C22.1244 73.6514 22.9749 74.5152 22.9749 75.5679V88.4696H29.2062C30.1387 88.4696 30.9071 89.2251 30.9071 90.1421C30.9071 91.0866 30.1387 91.8422 29.2062 91.8422H21.1359C19.8192 91.8422 19.0769 91.1141 19.0769 89.7918Z" fill="#2A7DE1"/>
<path d="M40.8181 73.5432C46.363 73.5432 50.3971 77.4293 50.3971 82.8541C50.3971 88.2788 46.363 92.1649 40.8181 92.1649C35.3012 92.1649 31.2651 88.2788 31.2651 82.8541C31.2651 77.4311 35.2993 73.5432 40.8181 73.5432ZM40.8181 76.9452C37.4423 76.9452 35.2732 79.4815 35.2732 82.8559C35.2732 86.2028 37.4423 88.7667 40.8181 88.7667C44.1939 88.7667 46.3909 86.2028 46.3909 82.8559C46.3891 79.4815 44.1939 76.9452 40.8181 76.9452Z" fill="#2A7DE1"/>
<path d="M52.5925 75.5954C52.5925 74.5152 53.471 73.6514 54.5695 73.6514C55.668 73.6514 56.5465 74.5152 56.5465 75.5954V84.5285C56.5465 87.0391 57.9472 88.7667 60.8007 88.7667C63.6002 88.7667 65.0009 87.0391 65.0009 84.5285V75.5954C65.0009 74.5152 65.8794 73.6514 66.9779 73.6514C68.0764 73.6514 68.9549 74.5152 68.9549 75.5954V84.6367C68.9549 89.1169 66.3475 92.1668 60.8026 92.1668C55.2036 92.1668 52.5963 89.0894 52.5963 84.6642V75.5954H52.5925Z" fill="#2A7DE1"/>
<path d="M72.0266 89.7918V75.865C72.0266 74.5702 72.767 73.8403 74.0857 73.8403H79.2463C84.9833 73.8403 88.9634 77.4293 88.9634 82.8559C88.9634 88.2807 84.9833 91.844 79.2463 91.844H74.0857C72.7689 91.8422 72.0266 91.1141 72.0266 89.7918ZM79.2463 88.4696C82.8702 88.4696 84.9833 85.9057 84.9833 82.8559C84.9833 79.6704 83.0063 77.2148 79.2463 77.2148H75.9246V88.4696H79.2463Z" fill="#2A7DE1"/>
<path d="M96.8955 88.8754C96.8955 87.8759 97.7199 87.0671 98.7065 87.0671C99.0907 87.0671 99.4469 87.1753 99.7491 87.3917C101.012 88.2555 102.521 88.8222 104.36 88.8222C106.501 88.8222 107.543 87.8227 107.543 86.7975C107.543 85.4477 105.95 84.9893 103.837 84.5033C100.846 83.8284 97.0018 83.0196 97.0018 78.9978C97.0018 76.0012 99.6372 73.5731 104.222 73.5731C106.309 73.5731 108.148 74.0591 109.903 75.0567C110.425 75.3263 110.809 75.9205 110.809 76.5679C110.809 77.5398 109.985 78.3486 109.024 78.3486C108.668 78.3486 108.338 78.2404 108.092 78.079C106.691 77.2959 105.236 76.9181 103.947 76.9181C101.916 76.9181 100.984 77.6737 100.984 78.7539C100.984 79.968 102.521 80.3458 104.634 80.8317C107.653 81.5066 111.495 82.3979 111.495 86.3922C111.495 89.686 109.108 92.1673 104.167 92.1673C101.478 92.1673 99.3649 91.4924 97.718 90.359C97.2256 90.0344 96.8955 89.4952 96.8955 88.8754Z" fill="#2A7DE1"/>
<path d="M112.706 82.856C112.706 77.323 116.96 73.5451 122.313 73.5451C125.332 73.5451 127.391 74.651 128.846 76.2171C129.148 76.5142 129.312 76.9727 129.312 77.4312C129.312 78.4307 128.488 79.2395 127.474 79.2395C126.925 79.2395 126.431 79.023 126.073 78.6196C125.166 77.6201 123.85 76.947 122.313 76.947C119.129 76.947 116.714 79.4577 116.714 82.8578C116.714 86.2579 119.129 88.7685 122.313 88.7685C123.85 88.7685 125.168 88.1212 126.101 87.0685C126.431 86.7182 126.925 86.4743 127.474 86.4743C128.49 86.4743 129.312 87.2849 129.312 88.2826C129.312 88.741 129.148 89.1738 128.846 89.4709C127.391 91.0371 125.332 92.1705 122.313 92.1705C116.96 92.1668 112.706 88.3889 112.706 82.856Z" fill="#2A7DE1"/>
<path d="M144.162 90.1164V84.2864H135.516V90.1164C135.516 91.1416 134.665 92.0329 133.595 92.0329C132.496 92.0329 131.618 91.1416 131.618 90.1164V75.5679C131.618 74.5152 132.496 73.6514 133.567 73.6514C134.665 73.6514 135.516 74.5152 135.516 75.5679V80.912H144.162V75.5679C144.162 74.5152 145.041 73.6514 146.139 73.6514C147.21 73.6514 148.088 74.5152 148.088 75.5679V90.1164C148.088 91.1416 147.21 92.0329 146.111 92.0329C145.041 92.0311 144.162 91.1416 144.162 90.1164Z" fill="#2A7DE1"/>
<path d="M159.808 73.5432C165.353 73.5432 169.387 77.4293 169.387 82.8541C169.387 88.2788 165.353 92.1649 159.808 92.1649C154.291 92.1649 150.255 88.2788 150.255 82.8541C150.255 77.4311 154.29 73.5432 159.808 73.5432ZM159.808 76.9452C156.433 76.9452 154.263 79.4815 154.263 82.8559C154.263 86.2028 156.433 88.7667 159.808 88.7667C163.184 88.7667 165.381 86.2028 165.381 82.8559C165.379 79.4815 163.184 76.9452 159.808 76.9452Z" fill="#2A7DE1"/>
<path d="M180.257 73.5432C185.802 73.5432 189.836 77.4293 189.836 82.8541C189.836 88.2788 185.802 92.1649 180.257 92.1649C174.74 92.1649 170.704 88.2788 170.704 82.8541C170.706 77.4311 174.74 73.5432 180.257 73.5432ZM180.257 76.9452C176.881 76.9452 174.712 79.4815 174.712 82.8559C174.712 86.2028 176.881 88.7667 180.257 88.7667C183.633 88.7667 185.83 86.2028 185.83 82.8559C185.83 79.4815 183.633 76.9452 180.257 76.9452Z" fill="#2A7DE1"/>
<path d="M192.033 89.7918V75.5679C192.033 74.5152 192.912 73.6514 194.01 73.6514C195.081 73.6514 195.931 74.5152 195.931 75.5679V88.4696H202.162C203.095 88.4696 203.863 89.2251 203.863 90.1421C203.863 91.0866 203.095 91.8422 202.162 91.8422H194.092C192.774 91.8422 192.033 91.1141 192.033 89.7918Z" fill="#2A7DE1"/>
</svg>
